<svg width="320" height="72" viewBox="0 0 320 72" fill="none" xmlns="http://www.w3.org/2000/svg">
  <defs>
    <linearGradient id="emblemFill" x1="6" y1="5" x2="66" y2="69" gradientUnits="userSpaceOnUse">
      <stop stop-color="#203A56"/>
      <stop offset="1" stop-color="#07172D"/>
    </linearGradient>
    <linearGradient id="arrowFill" x1="22" y1="48" x2="56" y2="20" gradientUnits="userSpaceOnUse">
      <stop stop-color="#DCEAF5"/>
      <stop offset="1" stop-color="#7CB4DC"/>
    </linearGradient>
    <filter id="softShadow" x="0" y="0" width="76" height="76" filterUnits="userSpaceOnUse" color-interpolation-filters="sRGB">
      <feDropShadow dx="0" dy="2" stdDeviation="2" flood-color="#020617" flood-opacity="0.25"/>
    </filter>
  </defs>

  <g filter="url(#softShadow)">
    <circle cx="36" cy="36" r="31" fill="url(#emblemFill)"/>
    <circle cx="36" cy="36" r="33.5" stroke="#B8D1E6" stroke-width="2"/>
    <circle cx="36" cy="36" r="26" stroke="#6B8BAB" stroke-width="1.5" opacity="0.8"/>
  </g>

  <g stroke="#F8FAFC" stroke-width="2.3" stroke-linecap="round" stroke-linejoin="round">
    <path d="M21 34.5C24.5 24.5 31 18.5 38 18.5C45 18.5 51.5 24.5 55 34.5"/>
    <path d="M22 38.5C26 47 32 52.5 38 52.5C44 52.5 50 47 54 38.5"/>
    <path d="M38 18.5V52.5"/>
    <path d="M25 29.5H51"/>
    <path d="M26 42.5H50"/>
    <path d="M30.5 20.5C34 26 35.5 31 35.5 36C35.5 41 34 46 30.5 51.5"/>
    <path d="M45.5 20.5C42 26 40.5 31 40.5 36C40.5 41 42 46 45.5 51.5"/>
  </g>

  <path d="M16 47.5C24.5 44.5 34.8 36.4 43.8 25.5L39 21.6L59.5 15.2L54.2 36L49.2 31.8C39.7 43 27.7 50.3 16.8 52.8C15.2 53.2 14.5 48.1 16 47.5Z" fill="#0B1F3A" opacity="0.45"/>
  <path d="M17 44.5C25.5 41.5 35.8 33.4 44.8 22.5L40 18.6L60.5 12.2L55.2 33L50.2 28.8C40.7 40 28.7 47.3 17.8 49.8C16.2 50.2 15.5 45.1 17 44.5Z" fill="url(#arrowFill)" stroke="#EAF5FF" stroke-width="1.3" stroke-linejoin="round"/>

  <text x="82" y="34" fill="#0B1F3A" font-family="Arial, Helvetica, sans-serif" font-size="28" font-weight="800" letter-spacing="1.5">EVERON</text>
  <text x="84" y="55" fill="#203A56" font-family="Arial, Helvetica, sans-serif" font-size="17" font-weight="800" letter-spacing="1.2">GLOBAL TRADES</text>
</svg>
