<svg width="280" height="46" viewBox="0 0 280 46" fill="none" xmlns="http://www.w3.org/2000/svg">
  <defs>
    <linearGradient id="emblemFill" x1="4" y1="3" x2="44" y2="45" gradientUnits="userSpaceOnUse">
      <stop stop-color="#18324D"/>
      <stop offset="1" stop-color="#07172D"/>
    </linearGradient>
    <linearGradient id="arrowFill" x1="14" y1="32" x2="39" y2="13" gradientUnits="userSpaceOnUse">
      <stop stop-color="#DCEAF5"/>
      <stop offset="1" stop-color="#7CB4DC"/>
    </linearGradient>
    <filter id="softShadow" x="0" y="0" width="48" height="48" filterUnits="userSpaceOnUse" color-interpolation-filters="sRGB">
      <feDropShadow dx="0" dy="1" stdDeviation="1.2" flood-color="#020617" flood-opacity="0.25"/>
    </filter>
  </defs>

  <g filter="url(#softShadow)">
    <circle cx="23" cy="23" r="20" fill="url(#emblemFill)"/>
    <circle cx="23" cy="23" r="22" stroke="#B8D1E6" stroke-width="1.7"/>
    <circle cx="23" cy="23" r="16.5" stroke="#6B8BAB" stroke-width="1.1" opacity="0.8"/>
  </g>

  <g stroke="#F8FAFC" stroke-width="1.55" stroke-linecap="round" stroke-linejoin="round">
    <path d="M12.5 22C14.8 15.5 19 11.8 23.5 11.8C28.1 11.8 32.3 15.5 34.5 22"/>
    <path d="M13.2 25.4C15.8 31 19.5 34.4 23.5 34.4C27.5 34.4 31.2 31 33.8 25.4"/>
    <path d="M23.5 11.8V34.4"/>
    <path d="M15.2 18.6H31.8"/>
    <path d="M15.8 27.5H31.2"/>
    <path d="M18.6 13.2C20.8 16.8 21.8 20 21.8 23.2C21.8 26.4 20.8 30 18.6 33.1"/>
    <path d="M28.4 13.2C26.2 16.8 25.2 20 25.2 23.2C25.2 26.4 26.2 30 28.4 33.1"/>
  </g>

  <path d="M9.5 31.6C15.1 29.6 21.8 24.2 27.8 17.1L24.7 14.5L38.7 10.4L34.8 24L31.6 21.2C25.4 28.5 17.6 33.3 10.3 34.9C9.3 35.1 8.5 32 9.5 31.6Z" fill="#0B1F3A" opacity="0.45"/>
  <path d="M10.1 29.4C15.8 27.4 22.6 22 28.5 14.8L25.4 12.2L39.4 8L35.5 21.7L32.3 18.9C26.1 26.2 18.2 31 10.9 32.6C9.9 32.8 9.1 29.8 10.1 29.4Z" fill="url(#arrowFill)" stroke="#EAF5FF" stroke-width="1" stroke-linejoin="round"/>

  <text x="56" y="21" fill="#0B1F3A" font-family="Arial, Helvetica, sans-serif" font-size="16" font-weight="700">Everon Global Trades</text>
  <text x="56" y="36" fill="#475569" font-family="Arial, Helvetica, sans-serif" font-size="11" font-weight="600">RETAIL &amp; WHOLESALE LLC</text>
</svg>
